<svg xmlns="http://www.w3.org/2000/svg" width="400" height="560" viewBox="0 0 400 560">
  <defs>
    <linearGradient id="grad_tech_engineer" x1="0%" y1="0%" x2="100%" y2="100%">
      <stop offset="0%" style="stop-color:#10B981;stop-opacity:0.1" />
      <stop offset="100%" style="stop-color:#10B981;stop-opacity:0.05" />
    </linearGradient>
  </defs>
  <rect width="400" height="560" fill="white" stroke="#E5E7EB" stroke-width="2"/>
  <rect width="400" height="120" fill="#10B981"/>
  <circle cx="60" cy="60" r="35" fill="white" opacity="0.9"/>
  <text x="110" y="55" font-family="Microsoft YaHei, sans-serif" font-size="20" fill="white" font-weight="bold">张三</text>
  <text x="110" y="80" font-family="Microsoft YaHei, sans-serif" font-size="14" fill="white" opacity="0.9">高级软件工程师</text>
  <text x="110" y="100" font-family="Microsoft YaHei, sans-serif" font-size="12" fill="white" opacity="0.8">138-0000-0000 | zhangsan@email.com</text>
  
  <rect x="20" y="140" width="360" height="30" fill="#ECFDF5" rx="4"/>
  <text x="30" y="160" font-family="Microsoft YaHei, sans-serif" font-size="14" fill="#10B981" font-weight="bold">个人简介</text>
  <rect x="30" y="180" width="340" height="6" fill="#E5E7EB" rx="2"/>
  <rect x="30" y="192" width="320" height="6" fill="#E5E7EB" rx="2"/>
  <rect x="30" y="204" width="300" height="6" fill="#E5E7EB" rx="2"/>
  
  <rect x="20" y="225" width="360" height="30" fill="#ECFDF5" rx="4"/>
  <text x="30" y="245" font-family="Microsoft YaHei, sans-serif" font-size="14" fill="#10B981" font-weight="bold">工作经历</text>
  <rect x="30" y="265" width="100" height="6" fill="#9CA3AF" rx="2"/>
  <rect x="30" y="277" width="340" height="6" fill="#E5E7EB" rx="2"/>
  <rect x="30" y="289" width="320" height="6" fill="#E5E7EB" rx="2"/>
  <rect x="30" y="301" width="300" height="6" fill="#E5E7EB" rx="2"/>
  
  <rect x="30" y="322" width="100" height="6" fill="#9CA3AF" rx="2"/>
  <rect x="30" y="334" width="340" height="6" fill="#E5E7EB" rx="2"/>
  <rect x="30" y="346" width="320" height="6" fill="#E5E7EB" rx="2"/>
  
  <rect x="20" y="367" width="360" height="30" fill="#ECFDF5" rx="4"/>
  <text x="30" y="387" font-family="Microsoft YaHei, sans-serif" font-size="14" fill="#10B981" font-weight="bold">项目经验</text>
  <rect x="30" y="407" width="120" height="6" fill="#9CA3AF" rx="2"/>
  <rect x="30" y="419" width="340" height="6" fill="#E5E7EB" rx="2"/>
  <rect x="30" y="431" width="320" height="6" fill="#E5E7EB" rx="2"/>
  
  <rect x="20" y="452" width="360" height="30" fill="#ECFDF5" rx="4"/>
  <text x="30" y="472" font-family="Microsoft YaHei, sans-serif" font-size="14" fill="#10B981" font-weight="bold">技能特长</text>
  <rect x="30" y="492" width="80" height="20" fill="#10B981" opacity="0.2" rx="10"/>
  <text x="45" y="506" font-family="Microsoft YaHei, sans-serif" font-size="11" fill="#10B981">Python</text>
  <rect x="120" y="492" width="80" height="20" fill="#10B981" opacity="0.2" rx="10"/>
  <text x="135" y="506" font-family="Microsoft YaHei, sans-serif" font-size="11" fill="#10B981">Java</text>
  <rect x="210" y="492" width="80" height="20" fill="#10B981" opacity="0.2" rx="10"/>
  <text x="220" y="506" font-family="Microsoft YaHei, sans-serif" font-size="11" fill="#10B981">MySQL</text>
  <rect x="300" y="492" width="80" height="20" fill="#10B981" opacity="0.2" rx="10"/>
  <text x="310" y="506" font-family="Microsoft YaHei, sans-serif" font-size="11" fill="#10B981">Git</text>
  
  <rect x="30" y="522" width="340" height="20" fill="url(#grad_tech_engineer)" rx="4"/>
  <text x="200" y="536" font-family="Microsoft YaHei, sans-serif" font-size="10" fill="#6B7280" text-anchor="middle">技术岗简历模板 - 预览</text>
</svg>